<mxfile host="app.diagrams.net" modified="2024-04-26T18:47:25.168Z" agent="Mozilla/5.0 (Macintosh; Intel Mac OS X 10_15_7) AppleWebKit/537.36 (KHTML, like Gecko) Chrome/124.0.0.0 Safari/537.36" etag="kx67OmyFAA7JEBagtTzz" version="24.3.0" type="device">
  <diagram name="Page-1" id="UcHZJhFEcX3Kwn3Ltrct">
    <mxGraphModel dx="1194" dy="565" grid="1" gridSize="10" guides="1" tooltips="1" connect="1" arrows="1" fold="1" page="1" pageScale="1" pageWidth="1169" pageHeight="827" math="0" shadow="0">
      <root>
        <mxCell id="0" />
        <mxCell id="1" parent="0" />
        <mxCell id="Bf1mJ1-Zt6ZFiqX7sWzE-1" value="&lt;h2&gt;&lt;font face=&quot;serif&quot;&gt;PyG Metrics&lt;/font&gt;&lt;/h2&gt;&lt;p&gt;&lt;/p&gt;&lt;ul&gt;&lt;li style=&quot;text-align: left;&quot;&gt;&lt;font face=&quot;serif&quot;&gt;K-Nearest Neighbors Maximum-Inner Product Search (KNN-MIPS)&lt;/font&gt;&lt;/li&gt;&lt;ul&gt;&lt;li style=&quot;text-align: left;&quot;&gt;&lt;font face=&quot;serif&quot;&gt;Recall @ k&lt;/font&gt;&lt;/li&gt;&lt;/ul&gt;&lt;/ul&gt;&lt;p&gt;&lt;/p&gt;&lt;p&gt;&lt;span style=&quot;font-family: serif; background-color: initial;&quot;&gt;&lt;br&gt;&lt;/span&gt;&lt;/p&gt;" style="text;html=1;spacing=5;spacingTop=-20;whiteSpace=wrap;overflow=hidden;strokeColor=none;strokeWidth=3;fillColor=#E6E6E6;fontSize=13;fontColor=#000000;align=center;rounded=1;" parent="1" vertex="1">
          <mxGeometry x="240" y="130" width="240" height="130" as="geometry" />
        </mxCell>
        <mxCell id="Bf1mJ1-Zt6ZFiqX7sWzE-2" value="&lt;span&gt;&lt;font color=&quot;#000000&quot; face=&quot;Serif&quot;&gt;Learning Stage 5&lt;/font&gt;&lt;/span&gt;" style="shape=offPageConnector;whiteSpace=wrap;html=1;fillColor=#0075E8;fontSize=15;fontColor=#FFFFFF;size=0.5093750000000015;verticalAlign=top;strokeColor=none;" parent="1" vertex="1">
          <mxGeometry x="280" y="80" width="160" height="40" as="geometry" />
        </mxCell>
        <mxCell id="Bf1mJ1-Zt6ZFiqX7sWzE-3" value="" style="line;strokeWidth=2;html=1;fillColor=none;fontSize=28;fontColor=#004D99;strokeColor=#004D99;" parent="1" vertex="1">
          <mxGeometry x="240" y="275" width="240" height="10" as="geometry" />
        </mxCell>
        <mxCell id="Bf1mJ1-Zt6ZFiqX7sWzE-4" value="" style="ellipse;whiteSpace=wrap;html=1;fillColor=#61BAFF;fontSize=28;fontColor=#004D99;strokeWidth=3;strokeColor=#004D99;" parent="1" vertex="1">
          <mxGeometry x="350" y="270" width="20" height="20" as="geometry" />
        </mxCell>
      </root>
    </mxGraphModel>
  </diagram>
</mxfile>
